<?xml version="1.0" encoding="utf-8"?>
<!-- Generator: Adobe Illustrator 16.0.4, SVG Export Plug-In . SVG Version: 6.00 Build 0)  -->
<!DOCTYPE svg PUBLIC "-//W3C//DTD SVG 1.1//EN" "http://www.w3.org/Graphics/SVG/1.1/DTD/svg11.dtd">
<svg version="1.1" id="Layer_1" xmlns="http://www.w3.org/2000/svg" xmlns:xlink="http://www.w3.org/1999/xlink" x="0px" y="0px"
	 width="564.1px" height="488.98px" viewBox="0 0 564.1 488.98" enable-background="new 0 0 564.1 488.98" xml:space="preserve">
<polygon fill-rule="evenodd" clip-rule="evenodd" fill="#A0CF67" points="282.05,0 564.1,488.98 0,488.98 282.05,0 "/>
<g>
	<path d="M249.53,206.761v19.6h-16.52v85.96h-20.86v-85.96h-16.38v-19.6H249.53z"/>
	<path d="M273.025,206.761v41.3h21.14v-41.3h20.859v105.56h-20.859v-44.66h-21.14v44.66h-20.86v-105.56H273.025z"/>
	<path d="M364.996,206.761v19.6h-21.141v22.96h18.621v19.6h-18.621v23.8h21.42v19.601h-42.279v-105.56H364.996z"/>
</g>
<g>
	<path d="M168.68,382.521v8.26c0,22.4-5.46,52.22-33.88,52.22s-37.66-30.52-37.66-53.899c0-24.36,7.84-55.02,37.66-55.02
		c16.1,0,26.6,10.08,31.08,25.06l-20.3,7.84c-0.98-5.319-2.66-13.58-10.64-13.58c-14.14-0.84-15.54,25.2-15.54,35.14
		c0,10.921,0.7,35.141,16.1,35.141c10.64,0,12.32-14.28,12.32-21.561h-13.3v-19.6H168.68z"/>
	<path d="M172.879,441.32v-105.56h21c13.3,0,37.1,1.4,37.1,30.239c0,11.62-4.62,21.561-14.979,27.3l18.34,48.021h-21.98
		l-18.34-48.721h-0.28v48.721H172.879z M193.739,381.12l3.64,0.141c9.52,0,13.3-6.44,13.3-15.12c0-7.56-3.64-13.721-14.14-13.16
		h-2.8V381.12z"/>
	<path d="M282.189,335.761v19.6h-21.14v22.96h18.62v19.6h-18.62v23.8h21.42v19.601h-42.28v-105.56H282.189z"/>
	<path d="M330.188,335.761v19.6h-21.139v22.96h18.619v19.6h-18.619v23.8h21.42v19.601h-42.28v-105.56H330.188z"/>
	<path d="M356.207,335.761l26.04,63.7l0.28-0.28c-1.26-5.04-1.68-10.5-1.68-15.961v-47.459h20.859v105.56h-19.74l-25.76-63.7
		l-0.279,0.28l0.979,10.64l0.14,4.341v48.439h-20.859v-105.56H356.207z"/>
	<path d="M452.947,359.561c-4.199-3.641-9.38-6.72-15.119-6.72c-6.44,0-10.5,3.92-10.5,10.36c0,17.359,31.779,18.339,31.779,46.898
		c0,18.761-10.779,32.9-30.38,32.9c-5.88,0-13.16-1.82-17.92-5.32V417.8c4.899,3.36,9.66,5.601,15.82,5.601
		c6.72,0,12.04-4.48,12.04-11.48c0-8.12-6.44-11.2-12.32-15.399c-12.04-8.12-19.46-15.96-19.46-31.359
		c0-16.661,9.659-31.08,27.58-31.08c6.72,0,12.739,1.819,18.479,5.18V359.561z"/>
</g>
<polygon fill="none" stroke="#000000" stroke-width="8" points="282.05,23.59 544.41,477.891 19.69,477.891 282.05,23.59 "/>
</svg>
